<?xml version="1.0" encoding="utf-8" standalone="no"?>
<!DOCTYPE svg PUBLIC "-//W3C//DTD SVG 1.1//EN"
  "http://www.w3.org/Graphics/SVG/1.1/DTD/svg11.dtd">
<svg xmlns:xlink="http://www.w3.org/1999/xlink" width="720pt" height="345.6pt" viewBox="0 0 720 345.6" xmlns="http://www.w3.org/2000/svg" version="1.1">
 <metadata>
  <rdf:RDF xmlns:dc="http://purl.org/dc/elements/1.1/" xmlns:cc="http://creativecommons.org/ns#" xmlns:rdf="http://www.w3.org/1999/02/22-rdf-syntax-ns#">
   <cc:Work>
    <dc:type rdf:resource="http://purl.org/dc/dcmitype/StillImage"/>
    <dc:date>2026-03-05T19:44:01.815343</dc:date>
    <dc:format>image/svg+xml</dc:format>
    <dc:creator>
     <cc:Agent>
      <dc:title>Matplotlib v3.10.8, https://matplotlib.org/</dc:title>
     </cc:Agent>
    </dc:creator>
   </cc:Work>
  </rdf:RDF>
 </metadata>
 <defs>
  <style type="text/css">*{stroke-linejoin: round; stroke-linecap: butt}</style>
 </defs>
 <g id="figure_1">
  <g id="patch_1">
   <path d="M 0 345.6 
L 720 345.6 
L 720 0 
L 0 0 
z
" style="fill: #ffffff"/>
  </g>
  <g id="axes_1">
   <g id="patch_2">
    <path d="M 52.4616 299.2584 
L 707.5584 299.2584 
L 707.5584 16.7616 
L 52.4616 16.7616 
z
" style="fill: #ffffff"/>
   </g>
   <g id="matplotlib.axis_1">
    <g id="xtick_1">
     <g id="text_1">
      <!-- Q1 -->
      <g style="fill: #262626" transform="translate(91.738479 315.58235) scale(0.1056 -0.1056)">
       <defs>
        <path id="DejaVuSans-51" d="M 2522 4238 
Q 1834 4238 1429 3725 
Q 1025 3213 1025 2328 
Q 1025 1447 1429 934 
Q 1834 422 2522 422 
Q 3209 422 3611 934 
Q 4013 1447 4013 2328 
Q 4013 3213 3611 3725 
Q 3209 4238 2522 4238 
z
M 3406 84 
L 4238 -825 
L 3475 -825 
L 2784 -78 
Q 2681 -84 2626 -87 
Q 2572 -91 2522 -91 
Q 1538 -91 948 567 
Q 359 1225 359 2328 
Q 359 3434 948 4092 
Q 1538 4750 2522 4750 
Q 3503 4750 4090 4092 
Q 4678 3434 4678 2328 
Q 4678 1516 4351 937 
Q 4025 359 3406 84 
z
" transform="scale(0.015625)"/>
        <path id="DejaVuSans-31" d="M 794 531 
L 1825 531 
L 1825 4091 
L 703 3866 
L 703 4441 
L 1819 4666 
L 2450 4666 
L 2450 531 
L 3481 531 
L 3481 0 
L 794 0 
L 794 531 
z
" transform="scale(0.015625)"/>
       </defs>
       <use xlink:href="#DejaVuSans-51"/>
       <use xlink:href="#DejaVuSans-31" transform="translate(78.710938 0)"/>
      </g>
     </g>
    </g>
    <g id="xtick_2">
     <g id="text_2">
      <!-- Q2 -->
      <g style="fill: #262626" transform="translate(185.323736 315.58235) scale(0.1056 -0.1056)">
       <defs>
        <path id="DejaVuSans-32" d="M 1228 531 
L 3431 531 
L 3431 0 
L 469 0 
L 469 531 
Q 828 903 1448 1529 
Q 2069 2156 2228 2338 
Q 2531 2678 2651 2914 
Q 2772 3150 2772 3378 
Q 2772 3750 2511 3984 
Q 2250 4219 1831 4219 
Q 1534 4219 1204 4116 
Q 875 4013 500 3803 
L 500 4441 
Q 881 4594 1212 4672 
Q 1544 4750 1819 4750 
Q 2544 4750 2975 4387 
Q 3406 4025 3406 3419 
Q 3406 3131 3298 2873 
Q 3191 2616 2906 2266 
Q 2828 2175 2409 1742 
Q 1991 1309 1228 531 
z
" transform="scale(0.015625)"/>
       </defs>
       <use xlink:href="#DejaVuSans-51"/>
       <use xlink:href="#DejaVuSans-32" transform="translate(78.710938 0)"/>
      </g>
     </g>
    </g>
    <g id="xtick_3">
     <g id="text_3">
      <!-- Q3 -->
      <g style="fill: #262626" transform="translate(278.908993 315.58235) scale(0.1056 -0.1056)">
       <defs>
        <path id="DejaVuSans-33" d="M 2597 2516 
Q 3050 2419 3304 2112 
Q 3559 1806 3559 1356 
Q 3559 666 3084 287 
Q 2609 -91 1734 -91 
Q 1441 -91 1130 -33 
Q 819 25 488 141 
L 488 750 
Q 750 597 1062 519 
Q 1375 441 1716 441 
Q 2309 441 2620 675 
Q 2931 909 2931 1356 
Q 2931 1769 2642 2001 
Q 2353 2234 1838 2234 
L 1294 2234 
L 1294 2753 
L 1863 2753 
Q 2328 2753 2575 2939 
Q 2822 3125 2822 3475 
Q 2822 3834 2567 4026 
Q 2313 4219 1838 4219 
Q 1578 4219 1281 4162 
Q 984 4106 628 3988 
L 628 4550 
Q 988 4650 1302 4700 
Q 1616 4750 1894 4750 
Q 2613 4750 3031 4423 
Q 3450 4097 3450 3541 
Q 3450 3153 3228 2886 
Q 3006 2619 2597 2516 
z
" transform="scale(0.015625)"/>
       </defs>
       <use xlink:href="#DejaVuSans-51"/>
       <use xlink:href="#DejaVuSans-33" transform="translate(78.710938 0)"/>
      </g>
     </g>
    </g>
    <g id="xtick_4">
     <g id="text_4">
      <!-- Q4 -->
      <g style="fill: #262626" transform="translate(372.49425 315.58235) scale(0.1056 -0.1056)">
       <defs>
        <path id="DejaVuSans-34" d="M 2419 4116 
L 825 1625 
L 2419 1625 
L 2419 4116 
z
M 2253 4666 
L 3047 4666 
L 3047 1625 
L 3713 1625 
L 3713 1100 
L 3047 1100 
L 3047 0 
L 2419 0 
L 2419 1100 
L 313 1100 
L 313 1709 
L 2253 4666 
z
" transform="scale(0.015625)"/>
       </defs>
       <use xlink:href="#DejaVuSans-51"/>
       <use xlink:href="#DejaVuSans-34" transform="translate(78.710938 0)"/>
      </g>
     </g>
    </g>
    <g id="xtick_5">
     <g id="text_5">
      <!-- Q5 -->
      <g style="fill: #262626" transform="translate(466.079507 315.58235) scale(0.1056 -0.1056)">
       <defs>
        <path id="DejaVuSans-35" d="M 691 4666 
L 3169 4666 
L 3169 4134 
L 1269 4134 
L 1269 2991 
Q 1406 3038 1543 3061 
Q 1681 3084 1819 3084 
Q 2600 3084 3056 2656 
Q 3513 2228 3513 1497 
Q 3513 744 3044 326 
Q 2575 -91 1722 -91 
Q 1428 -91 1123 -41 
Q 819 9 494 109 
L 494 744 
Q 775 591 1075 516 
Q 1375 441 1709 441 
Q 2250 441 2565 725 
Q 2881 1009 2881 1497 
Q 2881 1984 2565 2268 
Q 2250 2553 1709 2553 
Q 1456 2553 1204 2497 
Q 953 2441 691 2322 
L 691 4666 
z
" transform="scale(0.015625)"/>
       </defs>
       <use xlink:href="#DejaVuSans-51"/>
       <use xlink:href="#DejaVuSans-35" transform="translate(78.710938 0)"/>
      </g>
     </g>
    </g>
    <g id="xtick_6">
     <g id="text_6">
      <!-- Q6 -->
      <g style="fill: #262626" transform="translate(559.664764 315.58235) scale(0.1056 -0.1056)">
       <defs>
        <path id="DejaVuSans-36" d="M 2113 2584 
Q 1688 2584 1439 2293 
Q 1191 2003 1191 1497 
Q 1191 994 1439 701 
Q 1688 409 2113 409 
Q 2538 409 2786 701 
Q 3034 994 3034 1497 
Q 3034 2003 2786 2293 
Q 2538 2584 2113 2584 
z
M 3366 4563 
L 3366 3988 
Q 3128 4100 2886 4159 
Q 2644 4219 2406 4219 
Q 1781 4219 1451 3797 
Q 1122 3375 1075 2522 
Q 1259 2794 1537 2939 
Q 1816 3084 2150 3084 
Q 2853 3084 3261 2657 
Q 3669 2231 3669 1497 
Q 3669 778 3244 343 
Q 2819 -91 2113 -91 
Q 1303 -91 875 529 
Q 447 1150 447 2328 
Q 447 3434 972 4092 
Q 1497 4750 2381 4750 
Q 2619 4750 2861 4703 
Q 3103 4656 3366 4563 
z
" transform="scale(0.015625)"/>
       </defs>
       <use xlink:href="#DejaVuSans-51"/>
       <use xlink:href="#DejaVuSans-36" transform="translate(78.710938 0)"/>
      </g>
     </g>
    </g>
    <g id="xtick_7">
     <g id="text_7">
      <!-- Q7 -->
      <g style="fill: #262626" transform="translate(653.250021 315.58235) scale(0.1056 -0.1056)">
       <defs>
        <path id="DejaVuSans-37" d="M 525 4666 
L 3525 4666 
L 3525 4397 
L 1831 0 
L 1172 0 
L 2766 4134 
L 525 4134 
L 525 4666 
z
" transform="scale(0.015625)"/>
       </defs>
       <use xlink:href="#DejaVuSans-51"/>
       <use xlink:href="#DejaVuSans-37" transform="translate(78.710938 0)"/>
      </g>
     </g>
    </g>
    <g id="text_8">
     <!-- Question -->
     <g style="fill: #262626" transform="translate(354.2475 330.5319) scale(0.1152 -0.1152)">
      <defs>
       <path id="DejaVuSans-75" d="M 544 1381 
L 544 3500 
L 1119 3500 
L 1119 1403 
Q 1119 906 1312 657 
Q 1506 409 1894 409 
Q 2359 409 2629 706 
Q 2900 1003 2900 1516 
L 2900 3500 
L 3475 3500 
L 3475 0 
L 2900 0 
L 2900 538 
Q 2691 219 2414 64 
Q 2138 -91 1772 -91 
Q 1169 -91 856 284 
Q 544 659 544 1381 
z
M 1991 3584 
L 1991 3584 
z
" transform="scale(0.015625)"/>
       <path id="DejaVuSans-65" d="M 3597 1894 
L 3597 1613 
L 953 1613 
Q 991 1019 1311 708 
Q 1631 397 2203 397 
Q 2534 397 2845 478 
Q 3156 559 3463 722 
L 3463 178 
Q 3153 47 2828 -22 
Q 2503 -91 2169 -91 
Q 1331 -91 842 396 
Q 353 884 353 1716 
Q 353 2575 817 3079 
Q 1281 3584 2069 3584 
Q 2775 3584 3186 3129 
Q 3597 2675 3597 1894 
z
M 3022 2063 
Q 3016 2534 2758 2815 
Q 2500 3097 2075 3097 
Q 1594 3097 1305 2825 
Q 1016 2553 972 2059 
L 3022 2063 
z
" transform="scale(0.015625)"/>
       <path id="DejaVuSans-73" d="M 2834 3397 
L 2834 2853 
Q 2591 2978 2328 3040 
Q 2066 3103 1784 3103 
Q 1356 3103 1142 2972 
Q 928 2841 928 2578 
Q 928 2378 1081 2264 
Q 1234 2150 1697 2047 
L 1894 2003 
Q 2506 1872 2764 1633 
Q 3022 1394 3022 966 
Q 3022 478 2636 193 
Q 2250 -91 1575 -91 
Q 1294 -91 989 -36 
Q 684 19 347 128 
L 347 722 
Q 666 556 975 473 
Q 1284 391 1588 391 
Q 1994 391 2212 530 
Q 2431 669 2431 922 
Q 2431 1156 2273 1281 
Q 2116 1406 1581 1522 
L 1381 1569 
Q 847 1681 609 1914 
Q 372 2147 372 2553 
Q 372 3047 722 3315 
Q 1072 3584 1716 3584 
Q 2034 3584 2315 3537 
Q 2597 3491 2834 3397 
z
" transform="scale(0.015625)"/>
       <path id="DejaVuSans-74" d="M 1172 4494 
L 1172 3500 
L 2356 3500 
L 2356 3053 
L 1172 3053 
L 1172 1153 
Q 1172 725 1289 603 
Q 1406 481 1766 481 
L 2356 481 
L 2356 0 
L 1766 0 
Q 1100 0 847 248 
Q 594 497 594 1153 
L 594 3053 
L 172 3053 
L 172 3500 
L 594 3500 
L 594 4494 
L 1172 4494 
z
" transform="scale(0.015625)"/>
       <path id="DejaVuSans-69" d="M 603 3500 
L 1178 3500 
L 1178 0 
L 603 0 
L 603 3500 
z
M 603 4863 
L 1178 4863 
L 1178 4134 
L 603 4134 
L 603 4863 
z
" transform="scale(0.015625)"/>
       <path id="DejaVuSans-6f" d="M 1959 3097 
Q 1497 3097 1228 2736 
Q 959 2375 959 1747 
Q 959 1119 1226 758 
Q 1494 397 1959 397 
Q 2419 397 2687 759 
Q 2956 1122 2956 1747 
Q 2956 2369 2687 2733 
Q 2419 3097 1959 3097 
z
M 1959 3584 
Q 2709 3584 3137 3096 
Q 3566 2609 3566 1747 
Q 3566 888 3137 398 
Q 2709 -91 1959 -91 
Q 1206 -91 779 398 
Q 353 888 353 1747 
Q 353 2609 779 3096 
Q 1206 3584 1959 3584 
z
" transform="scale(0.015625)"/>
       <path id="DejaVuSans-6e" d="M 3513 2113 
L 3513 0 
L 2938 0 
L 2938 2094 
Q 2938 2591 2744 2837 
Q 2550 3084 2163 3084 
Q 1697 3084 1428 2787 
Q 1159 2491 1159 1978 
L 1159 0 
L 581 0 
L 581 3500 
L 1159 3500 
L 1159 2956 
Q 1366 3272 1645 3428 
Q 1925 3584 2291 3584 
Q 2894 3584 3203 3211 
Q 3513 2838 3513 2113 
z
" transform="scale(0.015625)"/>
      </defs>
      <use xlink:href="#DejaVuSans-51"/>
      <use xlink:href="#DejaVuSans-75" transform="translate(78.710938 0)"/>
      <use xlink:href="#DejaVuSans-65" transform="translate(142.089844 0)"/>
      <use xlink:href="#DejaVuSans-73" transform="translate(203.613281 0)"/>
      <use xlink:href="#DejaVuSans-74" transform="translate(255.712891 0)"/>
      <use xlink:href="#DejaVuSans-69" transform="translate(294.921875 0)"/>
      <use xlink:href="#DejaVuSans-6f" transform="translate(322.705078 0)"/>
      <use xlink:href="#DejaVuSans-6e" transform="translate(383.886719 0)"/>
     </g>
    </g>
   </g>
   <g id="matplotlib.axis_2">
    <g id="ytick_1">
     <g id="line2d_1">
      <path d="M 52.4616 299.2584 
L 707.5584 299.2584 
" clip-path="url(#paae4b03874)" style="fill: none; stroke: #cccccc; stroke-width: 0.8; stroke-linecap: round"/>
     </g>
     <g id="text_9">
      <!-- 1.0 -->
      <g style="fill: #262626" transform="translate(27.3679 303.270375) scale(0.1056 -0.1056)">
       <defs>
        <path id="DejaVuSans-2e" d="M 684 794 
L 1344 794 
L 1344 0 
L 684 0 
L 684 794 
z
" transform="scale(0.015625)"/>
        <path id="DejaVuSans-30" d="M 2034 4250 
Q 1547 4250 1301 3770 
Q 1056 3291 1056 2328 
Q 1056 1369 1301 889 
Q 1547 409 2034 409 
Q 2525 409 2770 889 
Q 3016 1369 3016 2328 
Q 3016 3291 2770 3770 
Q 2525 4250 2034 4250 
z
M 2034 4750 
Q 2819 4750 3233 4129 
Q 3647 3509 3647 2328 
Q 3647 1150 3233 529 
Q 2819 -91 2034 -91 
Q 1250 -91 836 529 
Q 422 1150 422 2328 
Q 422 3509 836 4129 
Q 1250 4750 2034 4750 
z
" transform="scale(0.015625)"/>
       </defs>
       <use xlink:href="#DejaVuSans-31"/>
       <use xlink:href="#DejaVuSans-2e" transform="translate(63.623047 0)"/>
       <use xlink:href="#DejaVuSans-30" transform="translate(95.410156 0)"/>
      </g>
     </g>
    </g>
    <g id="ytick_2">
     <g id="line2d_2">
      <path d="M 52.4616 263.9463 
L 707.5584 263.9463 
" clip-path="url(#paae4b03874)" style="fill: none; stroke: #cccccc; stroke-width: 0.8; stroke-linecap: round"/>
     </g>
     <g id="text_10">
      <!-- 1.5 -->
      <g style="fill: #262626" transform="translate(27.3679 267.958275) scale(0.1056 -0.1056)">
       <use xlink:href="#DejaVuSans-31"/>
       <use xlink:href="#DejaVuSans-2e" transform="translate(63.623047 0)"/>
       <use xlink:href="#DejaVuSans-35" transform="translate(95.410156 0)"/>
      </g>
     </g>
    </g>
    <g id="ytick_3">
     <g id="line2d_3">
      <path d="M 52.4616 228.6342 
L 707.5584 228.6342 
" clip-path="url(#paae4b03874)" style="fill: none; stroke: #cccccc; stroke-width: 0.8; stroke-linecap: round"/>
     </g>
     <g id="text_11">
      <!-- 2.0 -->
      <g style="fill: #262626" transform="translate(27.3679 232.646175) scale(0.1056 -0.1056)">
       <use xlink:href="#DejaVuSans-32"/>
       <use xlink:href="#DejaVuSans-2e" transform="translate(63.623047 0)"/>
       <use xlink:href="#DejaVuSans-30" transform="translate(95.410156 0)"/>
      </g>
     </g>
    </g>
    <g id="ytick_4">
     <g id="line2d_4">
      <path d="M 52.4616 193.3221 
L 707.5584 193.3221 
" clip-path="url(#paae4b03874)" style="fill: none; stroke: #cccccc; stroke-width: 0.8; stroke-linecap: round"/>
     </g>
     <g id="text_12">
      <!-- 2.5 -->
      <g style="fill: #262626" transform="translate(27.3679 197.334075) scale(0.1056 -0.1056)">
       <use xlink:href="#DejaVuSans-32"/>
       <use xlink:href="#DejaVuSans-2e" transform="translate(63.623047 0)"/>
       <use xlink:href="#DejaVuSans-35" transform="translate(95.410156 0)"/>
      </g>
     </g>
    </g>
    <g id="ytick_5">
     <g id="line2d_5">
      <path d="M 52.4616 158.01 
L 707.5584 158.01 
" clip-path="url(#paae4b03874)" style="fill: none; stroke: #cccccc; stroke-width: 0.8; stroke-linecap: round"/>
     </g>
     <g id="text_13">
      <!-- 3.0 -->
      <g style="fill: #262626" transform="translate(27.3679 162.021975) scale(0.1056 -0.1056)">
       <use xlink:href="#DejaVuSans-33"/>
       <use xlink:href="#DejaVuSans-2e" transform="translate(63.623047 0)"/>
       <use xlink:href="#DejaVuSans-30" transform="translate(95.410156 0)"/>
      </g>
     </g>
    </g>
    <g id="ytick_6">
     <g id="line2d_6">
      <path d="M 52.4616 122.6979 
L 707.5584 122.6979 
" clip-path="url(#paae4b03874)" style="fill: none; stroke: #cccccc; stroke-width: 0.8; stroke-linecap: round"/>
     </g>
     <g id="text_14">
      <!-- 3.5 -->
      <g style="fill: #262626" transform="translate(27.3679 126.709875) scale(0.1056 -0.1056)">
       <use xlink:href="#DejaVuSans-33"/>
       <use xlink:href="#DejaVuSans-2e" transform="translate(63.623047 0)"/>
       <use xlink:href="#DejaVuSans-35" transform="translate(95.410156 0)"/>
      </g>
     </g>
    </g>
    <g id="ytick_7">
     <g id="line2d_7">
      <path d="M 52.4616 87.3858 
L 707.5584 87.3858 
" clip-path="url(#paae4b03874)" style="fill: none; stroke: #cccccc; stroke-width: 0.8; stroke-linecap: round"/>
     </g>
     <g id="text_15">
      <!-- 4.0 -->
      <g style="fill: #262626" transform="translate(27.3679 91.397775) scale(0.1056 -0.1056)">
       <use xlink:href="#DejaVuSans-34"/>
       <use xlink:href="#DejaVuSans-2e" transform="translate(63.623047 0)"/>
       <use xlink:href="#DejaVuSans-30" transform="translate(95.410156 0)"/>
      </g>
     </g>
    </g>
    <g id="ytick_8">
     <g id="line2d_8">
      <path d="M 52.4616 52.0737 
L 707.5584 52.0737 
" clip-path="url(#paae4b03874)" style="fill: none; stroke: #cccccc; stroke-width: 0.8; stroke-linecap: round"/>
     </g>
     <g id="text_16">
      <!-- 4.5 -->
      <g style="fill: #262626" transform="translate(27.3679 56.085675) scale(0.1056 -0.1056)">
       <use xlink:href="#DejaVuSans-34"/>
       <use xlink:href="#DejaVuSans-2e" transform="translate(63.623047 0)"/>
       <use xlink:href="#DejaVuSans-35" transform="translate(95.410156 0)"/>
      </g>
     </g>
    </g>
    <g id="ytick_9">
     <g id="line2d_9">
      <path d="M 52.4616 16.7616 
L 707.5584 16.7616 
" clip-path="url(#paae4b03874)" style="fill: none; stroke: #cccccc; stroke-width: 0.8; stroke-linecap: round"/>
     </g>
     <g id="text_17">
      <!-- 5.0 -->
      <g style="fill: #262626" transform="translate(27.3679 20.773575) scale(0.1056 -0.1056)">
       <use xlink:href="#DejaVuSans-35"/>
       <use xlink:href="#DejaVuSans-2e" transform="translate(63.623047 0)"/>
       <use xlink:href="#DejaVuSans-30" transform="translate(95.410156 0)"/>
      </g>
     </g>
    </g>
    <g id="text_18">
     <!-- Response (1–5 Likert) -->
     <g style="fill: #262626" transform="translate(20.9721 220.146) rotate(-90) scale(0.1152 -0.1152)">
      <defs>
       <path id="DejaVuSans-52" d="M 2841 2188 
Q 3044 2119 3236 1894 
Q 3428 1669 3622 1275 
L 4263 0 
L 3584 0 
L 2988 1197 
Q 2756 1666 2539 1819 
Q 2322 1972 1947 1972 
L 1259 1972 
L 1259 0 
L 628 0 
L 628 4666 
L 2053 4666 
Q 2853 4666 3247 4331 
Q 3641 3997 3641 3322 
Q 3641 2881 3436 2590 
Q 3231 2300 2841 2188 
z
M 1259 4147 
L 1259 2491 
L 2053 2491 
Q 2509 2491 2742 2702 
Q 2975 2913 2975 3322 
Q 2975 3731 2742 3939 
Q 2509 4147 2053 4147 
L 1259 4147 
z
" transform="scale(0.015625)"/>
       <path id="DejaVuSans-70" d="M 1159 525 
L 1159 -1331 
L 581 -1331 
L 581 3500 
L 1159 3500 
L 1159 2969 
Q 1341 3281 1617 3432 
Q 1894 3584 2278 3584 
Q 2916 3584 3314 3078 
Q 3713 2572 3713 1747 
Q 3713 922 3314 415 
Q 2916 -91 2278 -91 
Q 1894 -91 1617 61 
Q 1341 213 1159 525 
z
M 3116 1747 
Q 3116 2381 2855 2742 
Q 2594 3103 2138 3103 
Q 1681 3103 1420 2742 
Q 1159 2381 1159 1747 
Q 1159 1113 1420 752 
Q 1681 391 2138 391 
Q 2594 391 2855 752 
Q 3116 1113 3116 1747 
z
" transform="scale(0.015625)"/>
       <path id="DejaVuSans-20" transform="scale(0.015625)"/>
       <path id="DejaVuSans-28" d="M 1984 4856 
Q 1566 4138 1362 3434 
Q 1159 2731 1159 2009 
Q 1159 1288 1364 580 
Q 1569 -128 1984 -844 
L 1484 -844 
Q 1016 -109 783 600 
Q 550 1309 550 2009 
Q 550 2706 781 3412 
Q 1013 4119 1484 4856 
L 1984 4856 
z
" transform="scale(0.015625)"/>
       <path id="DejaVuSans-2013" d="M 313 1978 
L 2888 1978 
L 2888 1528 
L 313 1528 
L 313 1978 
z
" transform="scale(0.015625)"/>
       <path id="DejaVuSans-4c" d="M 628 4666 
L 1259 4666 
L 1259 531 
L 3531 531 
L 3531 0 
L 628 0 
L 628 4666 
z
" transform="scale(0.015625)"/>
       <path id="DejaVuSans-6b" d="M 581 4863 
L 1159 4863 
L 1159 1991 
L 2875 3500 
L 3609 3500 
L 1753 1863 
L 3688 0 
L 2938 0 
L 1159 1709 
L 1159 0 
L 581 0 
L 581 4863 
z
" transform="scale(0.015625)"/>
       <path id="DejaVuSans-72" d="M 2631 2963 
Q 2534 3019 2420 3045 
Q 2306 3072 2169 3072 
Q 1681 3072 1420 2755 
Q 1159 2438 1159 1844 
L 1159 0 
L 581 0 
L 581 3500 
L 1159 3500 
L 1159 2956 
Q 1341 3275 1631 3429 
Q 1922 3584 2338 3584 
Q 2397 3584 2469 3576 
Q 2541 3569 2628 3553 
L 2631 2963 
z
" transform="scale(0.015625)"/>
       <path id="DejaVuSans-29" d="M 513 4856 
L 1013 4856 
Q 1481 4119 1714 3412 
Q 1947 2706 1947 2009 
Q 1947 1309 1714 600 
Q 1481 -109 1013 -844 
L 513 -844 
Q 928 -128 1133 580 
Q 1338 1288 1338 2009 
Q 1338 2731 1133 3434 
Q 928 4138 513 4856 
z
" transform="scale(0.015625)"/>
      </defs>
      <use xlink:href="#DejaVuSans-52"/>
      <use xlink:href="#DejaVuSans-65" transform="translate(64.982422 0)"/>
      <use xlink:href="#DejaVuSans-73" transform="translate(126.505859 0)"/>
      <use xlink:href="#DejaVuSans-70" transform="translate(178.605469 0)"/>
      <use xlink:href="#DejaVuSans-6f" transform="translate(242.082031 0)"/>
      <use xlink:href="#DejaVuSans-6e" transform="translate(303.263672 0)"/>
      <use xlink:href="#DejaVuSans-73" transform="translate(366.642578 0)"/>
      <use xlink:href="#DejaVuSans-65" transform="translate(418.742188 0)"/>
      <use xlink:href="#DejaVuSans-20" transform="translate(480.265625 0)"/>
      <use xlink:href="#DejaVuSans-28" transform="translate(512.052734 0)"/>
      <use xlink:href="#DejaVuSans-31" transform="translate(551.066406 0)"/>
      <use xlink:href="#DejaVuSans-2013" transform="translate(614.689453 0)"/>
      <use xlink:href="#DejaVuSans-35" transform="translate(664.689453 0)"/>
      <use xlink:href="#DejaVuSans-20" transform="translate(728.3125 0)"/>
      <use xlink:href="#DejaVuSans-4c" transform="translate(760.099609 0)"/>
      <use xlink:href="#DejaVuSans-69" transform="translate(815.8125 0)"/>
      <use xlink:href="#DejaVuSans-6b" transform="translate(843.595703 0)"/>
      <use xlink:href="#DejaVuSans-65" transform="translate(897.880859 0)"/>
      <use xlink:href="#DejaVuSans-72" transform="translate(959.404297 0)"/>
      <use xlink:href="#DejaVuSans-74" transform="translate(1000.517578 0)"/>
      <use xlink:href="#DejaVuSans-29" transform="translate(1039.726562 0)"/>
     </g>
    </g>
   </g>
   <g id="patch_3">
    <path d="M 99.254229 369.8826 
L 99.254229 369.8826 
L 99.254229 369.8826 
L 99.254229 369.8826 
z
" clip-path="url(#paae4b03874)" style="fill: #5875a4; stroke: #4c4c4c; stroke-width: 1.2; stroke-linejoin: miter"/>
   </g>
   <g id="patch_4">
    <path d="M 99.254229 369.8826 
L 99.254229 369.8826 
L 99.254229 369.8826 
L 99.254229 369.8826 
z
" clip-path="url(#paae4b03874)" style="fill: #cc8963; stroke: #4c4c4c; stroke-width: 1.2; stroke-linejoin: miter"/>
   </g>
   <g id="patch_5">
    <path d="M 68.83902 158.01 
L 99.254229 158.01 
L 99.254229 16.7616 
L 68.83902 16.7616 
L 68.83902 158.01 
z
" clip-path="url(#paae4b03874)" style="fill: #5875a4; stroke: #4c4c4c; stroke-width: 1.2; stroke-linejoin: miter"/>
   </g>
   <g id="line2d_10">
    <path d="M 84.046624 158.01 
L 84.046624 228.6342 
" clip-path="url(#paae4b03874)" style="fill: none; stroke: #4c4c4c; stroke-width: 1.2"/>
   </g>
   <g id="line2d_11">
    <path d="M 84.046624 16.7616 
L 84.046624 16.7616 
" clip-path="url(#paae4b03874)" style="fill: none; stroke: #4c4c4c; stroke-width: 1.2"/>
   </g>
   <g id="line2d_12">
    <path d="M 76.442822 228.6342 
L 91.650426 228.6342 
" clip-path="url(#paae4b03874)" style="fill: none; stroke: #4c4c4c; stroke-width: 1.2; stroke-linecap: round"/>
   </g>
   <g id="line2d_13">
    <path d="M 76.442822 16.7616 
L 91.650426 16.7616 
" clip-path="url(#paae4b03874)" style="fill: none; stroke: #4c4c4c; stroke-width: 1.2; stroke-linecap: round"/>
   </g>
   <g id="line2d_14"/>
   <g id="patch_6">
    <path d="M 162.424277 158.01 
L 192.839486 158.01 
L 192.839486 87.3858 
L 162.424277 87.3858 
L 162.424277 158.01 
z
" clip-path="url(#paae4b03874)" style="fill: #5875a4; stroke: #4c4c4c; stroke-width: 1.2; stroke-linejoin: miter"/>
   </g>
   <g id="line2d_15">
    <path d="M 177.631881 158.01 
L 177.631881 228.6342 
" clip-path="url(#paae4b03874)" style="fill: none; stroke: #4c4c4c; stroke-width: 1.2"/>
   </g>
   <g id="line2d_16">
    <path d="M 177.631881 87.3858 
L 177.631881 16.7616 
" clip-path="url(#paae4b03874)" style="fill: none; stroke: #4c4c4c; stroke-width: 1.2"/>
   </g>
   <g id="line2d_17">
    <path d="M 170.028079 228.6342 
L 185.235684 228.6342 
" clip-path="url(#paae4b03874)" style="fill: none; stroke: #4c4c4c; stroke-width: 1.2; stroke-linecap: round"/>
   </g>
   <g id="line2d_18">
    <path d="M 170.028079 16.7616 
L 185.235684 16.7616 
" clip-path="url(#paae4b03874)" style="fill: none; stroke: #4c4c4c; stroke-width: 1.2; stroke-linecap: round"/>
   </g>
   <g id="line2d_19"/>
   <g id="patch_7">
    <path d="M 256.009534 87.3858 
L 286.424743 87.3858 
L 286.424743 16.7616 
L 256.009534 16.7616 
L 256.009534 87.3858 
z
" clip-path="url(#paae4b03874)" style="fill: #5875a4; stroke: #4c4c4c; stroke-width: 1.2; stroke-linejoin: miter"/>
   </g>
   <g id="line2d_20">
    <path d="M 271.217139 87.3858 
L 271.217139 158.01 
" clip-path="url(#paae4b03874)" style="fill: none; stroke: #4c4c4c; stroke-width: 1.2"/>
   </g>
   <g id="line2d_21">
    <path d="M 271.217139 16.7616 
L 271.217139 16.7616 
" clip-path="url(#paae4b03874)" style="fill: none; stroke: #4c4c4c; stroke-width: 1.2"/>
   </g>
   <g id="line2d_22">
    <path d="M 263.613336 158.01 
L 278.820941 158.01 
" clip-path="url(#paae4b03874)" style="fill: none; stroke: #4c4c4c; stroke-width: 1.2; stroke-linecap: round"/>
   </g>
   <g id="line2d_23">
    <path d="M 263.613336 16.7616 
L 278.820941 16.7616 
" clip-path="url(#paae4b03874)" style="fill: none; stroke: #4c4c4c; stroke-width: 1.2; stroke-linecap: round"/>
   </g>
   <g id="line2d_24"/>
   <g id="patch_8">
    <path d="M 349.594791 140.35395 
L 380.01 140.35395 
L 380.01 16.7616 
L 349.594791 16.7616 
L 349.594791 140.35395 
z
" clip-path="url(#paae4b03874)" style="fill: #5875a4; stroke: #4c4c4c; stroke-width: 1.2; stroke-linejoin: miter"/>
   </g>
   <g id="line2d_25">
    <path d="M 364.802396 140.35395 
L 364.802396 228.6342 
" clip-path="url(#paae4b03874)" style="fill: none; stroke: #4c4c4c; stroke-width: 1.2"/>
   </g>
   <g id="line2d_26">
    <path d="M 364.802396 16.7616 
L 364.802396 16.7616 
" clip-path="url(#paae4b03874)" style="fill: none; stroke: #4c4c4c; stroke-width: 1.2"/>
   </g>
   <g id="line2d_27">
    <path d="M 357.198594 228.6342 
L 372.406198 228.6342 
" clip-path="url(#paae4b03874)" style="fill: none; stroke: #4c4c4c; stroke-width: 1.2; stroke-linecap: round"/>
   </g>
   <g id="line2d_28">
    <path d="M 357.198594 16.7616 
L 372.406198 16.7616 
" clip-path="url(#paae4b03874)" style="fill: none; stroke: #4c4c4c; stroke-width: 1.2; stroke-linecap: round"/>
   </g>
   <g id="line2d_29"/>
   <g id="patch_9">
    <path d="M 443.180049 158.01 
L 473.595257 158.01 
L 473.595257 16.7616 
L 443.180049 16.7616 
L 443.180049 158.01 
z
" clip-path="url(#paae4b03874)" style="fill: #5875a4; stroke: #4c4c4c; stroke-width: 1.2; stroke-linejoin: miter"/>
   </g>
   <g id="line2d_30">
    <path d="M 458.387653 158.01 
L 458.387653 228.6342 
" clip-path="url(#paae4b03874)" style="fill: none; stroke: #4c4c4c; stroke-width: 1.2"/>
   </g>
   <g id="line2d_31">
    <path d="M 458.387653 16.7616 
L 458.387653 16.7616 
" clip-path="url(#paae4b03874)" style="fill: none; stroke: #4c4c4c; stroke-width: 1.2"/>
   </g>
   <g id="line2d_32">
    <path d="M 450.783851 228.6342 
L 465.991455 228.6342 
" clip-path="url(#paae4b03874)" style="fill: none; stroke: #4c4c4c; stroke-width: 1.2; stroke-linecap: round"/>
   </g>
   <g id="line2d_33">
    <path d="M 450.783851 16.7616 
L 465.991455 16.7616 
" clip-path="url(#paae4b03874)" style="fill: none; stroke: #4c4c4c; stroke-width: 1.2; stroke-linecap: round"/>
   </g>
   <g id="line2d_34"/>
   <g id="patch_10">
    <path d="M 536.765306 140.35395 
L 567.180514 140.35395 
L 567.180514 16.7616 
L 536.765306 16.7616 
L 536.765306 140.35395 
z
" clip-path="url(#paae4b03874)" style="fill: #5875a4; stroke: #4c4c4c; stroke-width: 1.2; stroke-linejoin: miter"/>
   </g>
   <g id="line2d_35">
    <path d="M 551.97291 140.35395 
L 551.97291 228.6342 
" clip-path="url(#paae4b03874)" style="fill: none; stroke: #4c4c4c; stroke-width: 1.2"/>
   </g>
   <g id="line2d_36">
    <path d="M 551.97291 16.7616 
L 551.97291 16.7616 
" clip-path="url(#paae4b03874)" style="fill: none; stroke: #4c4c4c; stroke-width: 1.2"/>
   </g>
   <g id="line2d_37">
    <path d="M 544.369108 228.6342 
L 559.576712 228.6342 
" clip-path="url(#paae4b03874)" style="fill: none; stroke: #4c4c4c; stroke-width: 1.2; stroke-linecap: round"/>
   </g>
   <g id="line2d_38">
    <path d="M 544.369108 16.7616 
L 559.576712 16.7616 
" clip-path="url(#paae4b03874)" style="fill: none; stroke: #4c4c4c; stroke-width: 1.2; stroke-linecap: round"/>
   </g>
   <g id="line2d_39"/>
   <g id="patch_11">
    <path d="M 630.350563 140.35395 
L 660.765771 140.35395 
L 660.765771 16.7616 
L 630.350563 16.7616 
L 630.350563 140.35395 
z
" clip-path="url(#paae4b03874)" style="fill: #5875a4; stroke: #4c4c4c; stroke-width: 1.2; stroke-linejoin: miter"/>
   </g>
   <g id="line2d_40">
    <path d="M 645.558167 140.35395 
L 645.558167 228.6342 
" clip-path="url(#paae4b03874)" style="fill: none; stroke: #4c4c4c; stroke-width: 1.2"/>
   </g>
   <g id="line2d_41">
    <path d="M 645.558167 16.7616 
L 645.558167 16.7616 
" clip-path="url(#paae4b03874)" style="fill: none; stroke: #4c4c4c; stroke-width: 1.2"/>
   </g>
   <g id="line2d_42">
    <path d="M 637.954365 228.6342 
L 653.161969 228.6342 
" clip-path="url(#paae4b03874)" style="fill: none; stroke: #4c4c4c; stroke-width: 1.2; stroke-linecap: round"/>
   </g>
   <g id="line2d_43">
    <path d="M 637.954365 16.7616 
L 653.161969 16.7616 
" clip-path="url(#paae4b03874)" style="fill: none; stroke: #4c4c4c; stroke-width: 1.2; stroke-linecap: round"/>
   </g>
   <g id="line2d_44"/>
   <g id="patch_12">
    <path d="M 99.254229 87.3858 
L 129.669437 87.3858 
L 129.669437 16.7616 
L 99.254229 16.7616 
L 99.254229 87.3858 
z
" clip-path="url(#paae4b03874)" style="fill: #cc8963; stroke: #4c4c4c; stroke-width: 1.2; stroke-linejoin: miter"/>
   </g>
   <g id="line2d_45">
    <path d="M 114.461833 87.3858 
L 114.461833 158.01 
" clip-path="url(#paae4b03874)" style="fill: none; stroke: #4c4c4c; stroke-width: 1.2"/>
   </g>
   <g id="line2d_46">
    <path d="M 114.461833 16.7616 
L 114.461833 16.7616 
" clip-path="url(#paae4b03874)" style="fill: none; stroke: #4c4c4c; stroke-width: 1.2"/>
   </g>
   <g id="line2d_47">
    <path d="M 106.858031 158.01 
L 122.065635 158.01 
" clip-path="url(#paae4b03874)" style="fill: none; stroke: #4c4c4c; stroke-width: 1.2; stroke-linecap: round"/>
   </g>
   <g id="line2d_48">
    <path d="M 106.858031 16.7616 
L 122.065635 16.7616 
" clip-path="url(#paae4b03874)" style="fill: none; stroke: #4c4c4c; stroke-width: 1.2; stroke-linecap: round"/>
   </g>
   <g id="line2d_49"/>
   <g id="patch_13">
    <path d="M 192.839486 87.3858 
L 223.254694 87.3858 
L 223.254694 16.7616 
L 192.839486 16.7616 
L 192.839486 87.3858 
z
" clip-path="url(#paae4b03874)" style="fill: #cc8963; stroke: #4c4c4c; stroke-width: 1.2; stroke-linejoin: miter"/>
   </g>
   <g id="line2d_50">
    <path d="M 208.04709 87.3858 
L 208.04709 87.3858 
" clip-path="url(#paae4b03874)" style="fill: none; stroke: #4c4c4c; stroke-width: 1.2"/>
   </g>
   <g id="line2d_51">
    <path d="M 208.04709 16.7616 
L 208.04709 16.7616 
" clip-path="url(#paae4b03874)" style="fill: none; stroke: #4c4c4c; stroke-width: 1.2"/>
   </g>
   <g id="line2d_52">
    <path d="M 200.443288 87.3858 
L 215.650892 87.3858 
" clip-path="url(#paae4b03874)" style="fill: none; stroke: #4c4c4c; stroke-width: 1.2; stroke-linecap: round"/>
   </g>
   <g id="line2d_53">
    <path d="M 200.443288 16.7616 
L 215.650892 16.7616 
" clip-path="url(#paae4b03874)" style="fill: none; stroke: #4c4c4c; stroke-width: 1.2; stroke-linecap: round"/>
   </g>
   <g id="line2d_54"/>
   <g id="patch_14">
    <path d="M 286.424743 87.3858 
L 316.839951 87.3858 
L 316.839951 16.7616 
L 286.424743 16.7616 
L 286.424743 87.3858 
z
" clip-path="url(#paae4b03874)" style="fill: #cc8963; stroke: #4c4c4c; stroke-width: 1.2; stroke-linejoin: miter"/>
   </g>
   <g id="line2d_55">
    <path d="M 301.632347 87.3858 
L 301.632347 158.01 
" clip-path="url(#paae4b03874)" style="fill: none; stroke: #4c4c4c; stroke-width: 1.2"/>
   </g>
   <g id="line2d_56">
    <path d="M 301.632347 16.7616 
L 301.632347 16.7616 
" clip-path="url(#paae4b03874)" style="fill: none; stroke: #4c4c4c; stroke-width: 1.2"/>
   </g>
   <g id="line2d_57">
    <path d="M 294.028545 158.01 
L 309.236149 158.01 
" clip-path="url(#paae4b03874)" style="fill: none; stroke: #4c4c4c; stroke-width: 1.2; stroke-linecap: round"/>
   </g>
   <g id="line2d_58">
    <path d="M 294.028545 16.7616 
L 309.236149 16.7616 
" clip-path="url(#paae4b03874)" style="fill: none; stroke: #4c4c4c; stroke-width: 1.2; stroke-linecap: round"/>
   </g>
   <g id="line2d_59"/>
   <g id="patch_15">
    <path d="M 380.01 87.3858 
L 410.425209 87.3858 
L 410.425209 16.7616 
L 380.01 16.7616 
L 380.01 87.3858 
z
" clip-path="url(#paae4b03874)" style="fill: #cc8963; stroke: #4c4c4c; stroke-width: 1.2; stroke-linejoin: miter"/>
   </g>
   <g id="line2d_60">
    <path d="M 395.217604 87.3858 
L 395.217604 158.01 
" clip-path="url(#paae4b03874)" style="fill: none; stroke: #4c4c4c; stroke-width: 1.2"/>
   </g>
   <g id="line2d_61">
    <path d="M 395.217604 16.7616 
L 395.217604 16.7616 
" clip-path="url(#paae4b03874)" style="fill: none; stroke: #4c4c4c; stroke-width: 1.2"/>
   </g>
   <g id="line2d_62">
    <path d="M 387.613802 158.01 
L 402.821406 158.01 
" clip-path="url(#paae4b03874)" style="fill: none; stroke: #4c4c4c; stroke-width: 1.2; stroke-linecap: round"/>
   </g>
   <g id="line2d_63">
    <path d="M 387.613802 16.7616 
L 402.821406 16.7616 
" clip-path="url(#paae4b03874)" style="fill: none; stroke: #4c4c4c; stroke-width: 1.2; stroke-linecap: round"/>
   </g>
   <g id="line2d_64"/>
   <g id="patch_16">
    <path d="M 473.595257 158.01 
L 504.010466 158.01 
L 504.010466 16.7616 
L 473.595257 16.7616 
L 473.595257 158.01 
z
" clip-path="url(#paae4b03874)" style="fill: #cc8963; stroke: #4c4c4c; stroke-width: 1.2; stroke-linejoin: miter"/>
   </g>
   <g id="line2d_65">
    <path d="M 488.802861 158.01 
L 488.802861 158.01 
" clip-path="url(#paae4b03874)" style="fill: none; stroke: #4c4c4c; stroke-width: 1.2"/>
   </g>
   <g id="line2d_66">
    <path d="M 488.802861 16.7616 
L 488.802861 16.7616 
" clip-path="url(#paae4b03874)" style="fill: none; stroke: #4c4c4c; stroke-width: 1.2"/>
   </g>
   <g id="line2d_67">
    <path d="M 481.199059 158.01 
L 496.406664 158.01 
" clip-path="url(#paae4b03874)" style="fill: none; stroke: #4c4c4c; stroke-width: 1.2; stroke-linecap: round"/>
   </g>
   <g id="line2d_68">
    <path d="M 481.199059 16.7616 
L 496.406664 16.7616 
" clip-path="url(#paae4b03874)" style="fill: none; stroke: #4c4c4c; stroke-width: 1.2; stroke-linecap: round"/>
   </g>
   <g id="line2d_69"/>
   <g id="patch_17">
    <path d="M 567.180514 158.01 
L 597.595723 158.01 
L 597.595723 16.7616 
L 567.180514 16.7616 
L 567.180514 158.01 
z
" clip-path="url(#paae4b03874)" style="fill: #cc8963; stroke: #4c4c4c; stroke-width: 1.2; stroke-linejoin: miter"/>
   </g>
   <g id="line2d_70">
    <path d="M 582.388119 158.01 
L 582.388119 228.6342 
" clip-path="url(#paae4b03874)" style="fill: none; stroke: #4c4c4c; stroke-width: 1.2"/>
   </g>
   <g id="line2d_71">
    <path d="M 582.388119 16.7616 
L 582.388119 16.7616 
" clip-path="url(#paae4b03874)" style="fill: none; stroke: #4c4c4c; stroke-width: 1.2"/>
   </g>
   <g id="line2d_72">
    <path d="M 574.784316 228.6342 
L 589.991921 228.6342 
" clip-path="url(#paae4b03874)" style="fill: none; stroke: #4c4c4c; stroke-width: 1.2; stroke-linecap: round"/>
   </g>
   <g id="line2d_73">
    <path d="M 574.784316 16.7616 
L 589.991921 16.7616 
" clip-path="url(#paae4b03874)" style="fill: none; stroke: #4c4c4c; stroke-width: 1.2; stroke-linecap: round"/>
   </g>
   <g id="line2d_74"/>
   <g id="patch_18">
    <path d="M 660.765771 87.3858 
L 691.18098 87.3858 
L 691.18098 16.7616 
L 660.765771 16.7616 
L 660.765771 87.3858 
z
" clip-path="url(#paae4b03874)" style="fill: #cc8963; stroke: #4c4c4c; stroke-width: 1.2; stroke-linejoin: miter"/>
   </g>
   <g id="line2d_75">
    <path d="M 675.973376 87.3858 
L 675.973376 158.01 
" clip-path="url(#paae4b03874)" style="fill: none; stroke: #4c4c4c; stroke-width: 1.2"/>
   </g>
   <g id="line2d_76">
    <path d="M 675.973376 16.7616 
L 675.973376 16.7616 
" clip-path="url(#paae4b03874)" style="fill: none; stroke: #4c4c4c; stroke-width: 1.2"/>
   </g>
   <g id="line2d_77">
    <path d="M 668.369574 158.01 
L 683.577178 158.01 
" clip-path="url(#paae4b03874)" style="fill: none; stroke: #4c4c4c; stroke-width: 1.2; stroke-linecap: round"/>
   </g>
   <g id="line2d_78">
    <path d="M 668.369574 16.7616 
L 683.577178 16.7616 
" clip-path="url(#paae4b03874)" style="fill: none; stroke: #4c4c4c; stroke-width: 1.2; stroke-linecap: round"/>
   </g>
   <g id="line2d_79"/>
   <g id="line2d_80">
    <path d="M 68.83902 87.3858 
L 99.254229 87.3858 
" clip-path="url(#paae4b03874)" style="fill: none; stroke: #4c4c4c; stroke-width: 1.2"/>
   </g>
   <g id="line2d_81">
    <path d="M 162.424277 87.3858 
L 192.839486 87.3858 
" clip-path="url(#paae4b03874)" style="fill: none; stroke: #4c4c4c; stroke-width: 1.2"/>
   </g>
   <g id="line2d_82">
    <path d="M 256.009534 87.3858 
L 286.424743 87.3858 
" clip-path="url(#paae4b03874)" style="fill: none; stroke: #4c4c4c; stroke-width: 1.2"/>
   </g>
   <g id="line2d_83">
    <path d="M 349.594791 87.3858 
L 380.01 87.3858 
" clip-path="url(#paae4b03874)" style="fill: none; stroke: #4c4c4c; stroke-width: 1.2"/>
   </g>
   <g id="line2d_84">
    <path d="M 443.180049 87.3858 
L 473.595257 87.3858 
" clip-path="url(#paae4b03874)" style="fill: none; stroke: #4c4c4c; stroke-width: 1.2"/>
   </g>
   <g id="line2d_85">
    <path d="M 536.765306 87.3858 
L 567.180514 87.3858 
" clip-path="url(#paae4b03874)" style="fill: none; stroke: #4c4c4c; stroke-width: 1.2"/>
   </g>
   <g id="line2d_86">
    <path d="M 630.350563 87.3858 
L 660.765771 87.3858 
" clip-path="url(#paae4b03874)" style="fill: none; stroke: #4c4c4c; stroke-width: 1.2"/>
   </g>
   <g id="line2d_87">
    <path d="M 99.254229 16.7616 
L 129.669437 16.7616 
" clip-path="url(#paae4b03874)" style="fill: none; stroke: #4c4c4c; stroke-width: 1.2"/>
   </g>
   <g id="line2d_88">
    <path d="M 192.839486 87.3858 
L 223.254694 87.3858 
" clip-path="url(#paae4b03874)" style="fill: none; stroke: #4c4c4c; stroke-width: 1.2"/>
   </g>
   <g id="line2d_89">
    <path d="M 286.424743 16.7616 
L 316.839951 16.7616 
" clip-path="url(#paae4b03874)" style="fill: none; stroke: #4c4c4c; stroke-width: 1.2"/>
   </g>
   <g id="line2d_90">
    <path d="M 380.01 16.7616 
L 410.425209 16.7616 
" clip-path="url(#paae4b03874)" style="fill: none; stroke: #4c4c4c; stroke-width: 1.2"/>
   </g>
   <g id="line2d_91">
    <path d="M 473.595257 87.3858 
L 504.010466 87.3858 
" clip-path="url(#paae4b03874)" style="fill: none; stroke: #4c4c4c; stroke-width: 1.2"/>
   </g>
   <g id="line2d_92">
    <path d="M 567.180514 87.3858 
L 597.595723 87.3858 
" clip-path="url(#paae4b03874)" style="fill: none; stroke: #4c4c4c; stroke-width: 1.2"/>
   </g>
   <g id="line2d_93">
    <path d="M 660.765771 87.3858 
L 691.18098 87.3858 
" clip-path="url(#paae4b03874)" style="fill: none; stroke: #4c4c4c; stroke-width: 1.2"/>
   </g>
   <g id="patch_19">
    <path d="M 52.4616 299.2584 
L 52.4616 16.7616 
" style="fill: none; stroke: #cccccc; stroke-linejoin: miter; stroke-linecap: square"/>
   </g>
   <g id="patch_20">
    <path d="M 99.254229 299.2584 
L 660.765771 299.2584 
" style="fill: none; stroke: #cccccc; stroke-linejoin: miter; stroke-linecap: square"/>
   </g>
   <g id="legend_1">
    <g id="patch_21">
     <path d="M 59.8536 293.9784 
L 162.3615 293.9784 
Q 164.4735 293.9784 164.4735 291.8664 
L 164.4735 261.9222 
Q 164.4735 259.8102 162.3615 259.8102 
L 59.8536 259.8102 
Q 57.7416 259.8102 57.7416 261.9222 
L 57.7416 291.8664 
Q 57.7416 293.9784 59.8536 293.9784 
z
" style="fill: #ffffff; opacity: 0.8; stroke: #cccccc; stroke-width: 0.8; stroke-linejoin: miter"/>
    </g>
    <g id="patch_22">
     <path d="M 61.9656 272.05815 
L 83.0856 272.05815 
L 83.0856 264.66615 
L 61.9656 264.66615 
z
" style="fill: #5875a4; stroke: #4c4c4c; stroke-width: 1.2; stroke-linejoin: miter"/>
    </g>
    <g id="text_19">
     <!-- Group 1 (G1) -->
     <g style="fill: #262626" transform="translate(91.5336 272.05815) scale(0.1056 -0.1056)">
      <defs>
       <path id="DejaVuSans-47" d="M 3809 666 
L 3809 1919 
L 2778 1919 
L 2778 2438 
L 4434 2438 
L 4434 434 
Q 4069 175 3628 42 
Q 3188 -91 2688 -91 
Q 1594 -91 976 548 
Q 359 1188 359 2328 
Q 359 3472 976 4111 
Q 1594 4750 2688 4750 
Q 3144 4750 3555 4637 
Q 3966 4525 4313 4306 
L 4313 3634 
Q 3963 3931 3569 4081 
Q 3175 4231 2741 4231 
Q 1884 4231 1454 3753 
Q 1025 3275 1025 2328 
Q 1025 1384 1454 906 
Q 1884 428 2741 428 
Q 3075 428 3337 486 
Q 3600 544 3809 666 
z
" transform="scale(0.015625)"/>
      </defs>
      <use xlink:href="#DejaVuSans-47"/>
      <use xlink:href="#DejaVuSans-72" transform="translate(77.490234 0)"/>
      <use xlink:href="#DejaVuSans-6f" transform="translate(116.353516 0)"/>
      <use xlink:href="#DejaVuSans-75" transform="translate(177.535156 0)"/>
      <use xlink:href="#DejaVuSans-70" transform="translate(240.914062 0)"/>
      <use xlink:href="#DejaVuSans-20" transform="translate(304.390625 0)"/>
      <use xlink:href="#DejaVuSans-31" transform="translate(336.177734 0)"/>
      <use xlink:href="#DejaVuSans-20" transform="translate(399.800781 0)"/>
      <use xlink:href="#DejaVuSans-28" transform="translate(431.587891 0)"/>
      <use xlink:href="#DejaVuSans-47" transform="translate(470.601562 0)"/>
      <use xlink:href="#DejaVuSans-31" transform="translate(548.091797 0)"/>
      <use xlink:href="#DejaVuSans-29" transform="translate(611.714844 0)"/>
     </g>
    </g>
    <g id="patch_23">
     <path d="M 61.9656 287.55825 
L 83.0856 287.55825 
L 83.0856 280.16625 
L 61.9656 280.16625 
z
" style="fill: #cc8963; stroke: #4c4c4c; stroke-width: 1.2; stroke-linejoin: miter"/>
    </g>
    <g id="text_20">
     <!-- Group 2 (G2) -->
     <g style="fill: #262626" transform="translate(91.5336 287.55825) scale(0.1056 -0.1056)">
      <use xlink:href="#DejaVuSans-47"/>
      <use xlink:href="#DejaVuSans-72" transform="translate(77.490234 0)"/>
      <use xlink:href="#DejaVuSans-6f" transform="translate(116.353516 0)"/>
      <use xlink:href="#DejaVuSans-75" transform="translate(177.535156 0)"/>
      <use xlink:href="#DejaVuSans-70" transform="translate(240.914062 0)"/>
      <use xlink:href="#DejaVuSans-20" transform="translate(304.390625 0)"/>
      <use xlink:href="#DejaVuSans-32" transform="translate(336.177734 0)"/>
      <use xlink:href="#DejaVuSans-20" transform="translate(399.800781 0)"/>
      <use xlink:href="#DejaVuSans-28" transform="translate(431.587891 0)"/>
      <use xlink:href="#DejaVuSans-47" transform="translate(470.601562 0)"/>
      <use xlink:href="#DejaVuSans-32" transform="translate(548.091797 0)"/>
      <use xlink:href="#DejaVuSans-29" transform="translate(611.714844 0)"/>
     </g>
    </g>
   </g>
  </g>
 </g>
 <defs>
  <clipPath id="paae4b03874">
   <rect x="52.4616" y="16.7616" width="655.0968" height="282.4968"/>
  </clipPath>
 </defs>
</svg>
